{"title":"The Dilemma 2011 TS XviD Feel-Free","uid":6178896,"size":858732507,"categoryP":"video","categoryS":"movies","magnet":"?xt=urn:btih:0308940a3b279d77dcb11deec5d7d7294758ef23&amp;dn=The+Dilemma+2011+TS+XviD+Feel-Free&amp;tr=udp%3A%2F%2Ftracker.openbittorrent.com%3A80&amp;tr=udp%3A%2F%2Fopen.demonii.com%3A1337&amp;tr=udp%3A%2F%2Ftracker.coppersurfer.tk%3A6969&amp;tr=udp%3A%2F%2Fexodus.desync.com%3A6969","seeders":1,"leechers":0,"uploader":"hiest","files":-1,"time":1297875335,"description":"Genre:Comedy | Drama\nLanguage:English\nIMDb:http://www.imdb.com/title/tt1578275/\nSource:Jailbait/Imagine Thx.\n\n\nFormat : AVI\nFormat/Info : Audio Video Interleave\nFile size : 818 MiB\nDuration : 1h 42mn\nOverall bit rate : 1 112 Kbps\n\n\nVideo\nCodec ID/Hint : XviD\nDuration : 1h 42mn\nBit rate : 846 Kbps\nWidth : 688 pixels\nHeight : 384 pixels\nDisplay aspect ratio : 16:9\nFrame rate : 25.000 fps\nColor space : YUV\nChroma subsampling : 4:2:0\nBit depth : 8 bits\nScan type : Progressive\nBits/(Pixel*Frame) : 0.128\nStream size : 622 MiB (76%)\nWriting library : XviD 1.2.1 \n\nAudio\nID : 1\nFormat : AC-3\nFormat/Info : Audio Coding 3\nMode extension : CM (complete main)\nCodec ID : 2000\nDuration : 1h 42mn\nBit rate mode : Constant\nBit rate : 256 Kbps\nChannel(s) : 2 channels\nChannel positions : Front: L R\nSampling rate : 48.0 KHz\nBit depth : 16 bits\nStream size : 188 MiB (23%)\nAlignment : Aligned on interleaves\nInterleave, duration : 40 ms (1.00 video frame)\nInterleave, preload duration : 512 ms\n\n\nPlot:\nA man discovers that his best friend's wife is having an affair.","torrent":{"xt":"urn:btih:0308940a3b279d77dcb11deec5d7d7294758ef23","amp;dn":"The+Dilemma+2011+TS+XviD+Feel-Free","amp;tr":["udp%3A%2F%2Ftracker.openbittorrent.com%3A80","udp%3A%2F%2Fopen.demonii.com%3A1337","udp%3A%2F%2Ftracker.coppersurfer.tk%3A6969","udp%3A%2F%2Fexodus.desync.com%3A6969"],"infoHash":"0308940a3b279d77dcb11deec5d7d7294758ef23","infoHashBuffer":{"type":"Buffer","data":[3,8,148,10,59,39,157,119,220,177,29,238,197,215,215,41,71,88,239,35]},"announce":[],"urlList":[]}}